<?xml version="1.0" encoding="UTF-8"?>
<svg width="57px" height="57px" viewBox="0 0 57 57" version="1.1" xmlns="http://www.w3.org/2000/svg" xmlns:xlink="http://www.w3.org/1999/xlink">
    <!-- Generator: Sketch 45.2 (43514) - http://www.bohemiancoding.com/sketch -->
    <title>Combined Shape Copy</title>
    <desc>Created with Sketch.</desc>
    <defs>
        <linearGradient x1="50%" y1="0%" x2="50%" y2="100%" id="linearGradient-1">
            <stop stop-color="#9EDBF2" offset="0%"></stop>
            <stop stop-color="#3FA8E1" offset="100%"></stop>
        </linearGradient>
    </defs>
    <g id="Page-1" stroke="none" stroke-width="1" fill="none" fill-rule="evenodd">
        <g id="Desktop-Copy-4" transform="translate(-275.000000, -32.000000)" fill="url(#linearGradient-1)">
            <g id="Group" transform="translate(275.000000, 32.000000)">
                <path d="M52.0319836,34.8516736 C52.5557398,32.9395524 52.8541112,30.9342627 52.8967614,28.8661406 C50.6502407,30.7550861 48.0244449,32.7924581 44.088099,32.7924581 C41.7100613,32.7924581 38.8536601,32.0490788 35.3125888,30.0808087 C27.9414594,25.9831192 25.2244333,28.2802736 21.7849404,31.1867743 C20.9530209,31.8902536 19.7108505,31.782175 19.0112193,30.9458249 C18.3111943,30.1106369 18.4186784,28.8628908 19.2502042,28.1594115 C22.9160831,25.0611585 27.478057,21.2048057 37.2181686,26.6188073 C44.5916603,30.7172716 47.3082927,28.4201172 50.7473919,25.5136165 C50.8105677,25.4601903 51.8516835,24.6040858 52.5278917,24.05621 C52.288858,22.7010167 51.93867,21.3841618 51.4870803,20.1153978 C49.5405396,21.6013635 47.2324331,22.9011361 44.088099,22.9011361 C41.7100613,22.9015235 38.8536601,22.1585315 35.3125888,20.1902615 C27.9414594,16.0921846 25.2244333,18.3897263 21.7849404,21.2958397 C20.9526272,21.999319 19.7108505,21.8912404 19.0112193,21.0552776 C18.3111943,20.2189275 18.4186784,18.9711814 19.2502042,18.2680895 C22.9160831,15.1702238 27.478057,11.3138711 37.2181686,16.7274853 C43.909777,20.4472848 46.7660111,18.8996731 49.8075539,16.4086298 C45.6120622,8.88583121 37.5752036,3.79792104 28.35,3.79792104 C14.7902612,3.79792104 3.79792104,14.7902612 3.79792104,28.35 C3.79792104,41.9097388 14.7902612,52.902079 28.35,52.902079 C37.1046786,52.902079 44.789142,48.3199435 49.1359623,41.4231008 C47.7043435,42.1713193 46.0607936,42.6830053 44.088099,42.6830053 C41.7100613,42.6830053 38.8536601,41.9404008 35.3125888,39.971356 C27.9410657,35.8744412 25.2244333,38.1704335 21.7849404,41.0777089 C20.9530209,41.7811882 19.7108505,41.6727223 19.0112193,40.8375343 C18.3111943,40.0011841 18.4186784,38.7530507 19.2502042,38.0499588 C22.9160831,34.9517057 27.478057,31.095353 37.2181686,36.5093546 C44.5916603,40.6074314 47.8707425,38.5873634 51.3098417,35.6804753 C51.3452306,35.6505972 51.6751015,35.2663624 52.0319836,34.8516736 Z M28.35,56.7 C12.6927273,56.7 0,44.0072727 0,28.35 C0,12.6927273 12.6927273,0 28.35,0 C44.0072727,0 56.7,12.6927273 56.7,28.35 C56.7,44.0072727 44.0072727,56.7 28.35,56.7 Z" id="Combined-Shape-Copy"></path>
            </g>
        </g>
    </g>
</svg>